<mxfile host="app.diagrams.net" modified="2022-10-21T08:04:10.213Z" agent="5.0 (Macintosh; Intel Mac OS X 10_15_7) AppleWebKit/537.36 (KHTML, like Gecko) Chrome/106.0.0.0 Safari/537.36" etag="gj7vqN_xfOwaH28ELv60" version="20.4.1" type="github" pages="2">
  <diagram id="C5RBs43oDa-KdzZeNtuy" name="Page-1">
    <mxGraphModel dx="1234" dy="1963" grid="1" gridSize="10" guides="1" tooltips="1" connect="1" arrows="1" fold="1" page="1" pageScale="1" pageWidth="827" pageHeight="1169" math="0" shadow="0">
      <root>
        <mxCell id="WIyWlLk6GJQsqaUBKTNV-0" />
        <mxCell id="WIyWlLk6GJQsqaUBKTNV-1" parent="WIyWlLk6GJQsqaUBKTNV-0" />
        <mxCell id="nLl6k8Ohztmbap9x90bs-2" value="" style="edgeStyle=orthogonalEdgeStyle;rounded=0;orthogonalLoop=1;jettySize=auto;html=1;" parent="WIyWlLk6GJQsqaUBKTNV-1" source="nLl6k8Ohztmbap9x90bs-0" target="nLl6k8Ohztmbap9x90bs-1" edge="1">
          <mxGeometry relative="1" as="geometry" />
        </mxCell>
        <mxCell id="nLl6k8Ohztmbap9x90bs-0" value="开始下单" style="rounded=1;whiteSpace=wrap;html=1;fontFamily=Helvetica;fontSize=12;fontColor=default;align=center;strokeColor=#6c8ebf;fillColor=#dae8fc;" parent="WIyWlLk6GJQsqaUBKTNV-1" vertex="1">
          <mxGeometry x="90" y="-30" width="120" height="60" as="geometry" />
        </mxCell>
        <mxCell id="nLl6k8Ohztmbap9x90bs-4" value="是" style="edgeStyle=orthogonalEdgeStyle;rounded=0;orthogonalLoop=1;jettySize=auto;html=1;entryX=0;entryY=0.5;entryDx=0;entryDy=0;" parent="WIyWlLk6GJQsqaUBKTNV-1" source="nLl6k8Ohztmbap9x90bs-1" target="nLl6k8Ohztmbap9x90bs-14" edge="1">
          <mxGeometry relative="1" as="geometry">
            <mxPoint x="190" y="380" as="targetPoint" />
            <Array as="points">
              <mxPoint x="150" y="550" />
            </Array>
          </mxGeometry>
        </mxCell>
        <mxCell id="nLl6k8Ohztmbap9x90bs-10" value="" style="edgeStyle=orthogonalEdgeStyle;rounded=0;orthogonalLoop=1;jettySize=auto;html=1;" parent="WIyWlLk6GJQsqaUBKTNV-1" source="nLl6k8Ohztmbap9x90bs-1" target="nLl6k8Ohztmbap9x90bs-9" edge="1">
          <mxGeometry relative="1" as="geometry" />
        </mxCell>
        <mxCell id="nLl6k8Ohztmbap9x90bs-11" value="否" style="edgeLabel;html=1;align=center;verticalAlign=middle;resizable=0;points=[];" parent="nLl6k8Ohztmbap9x90bs-10" vertex="1" connectable="0">
          <mxGeometry x="-0.15" y="-2" relative="1" as="geometry">
            <mxPoint y="1" as="offset" />
          </mxGeometry>
        </mxCell>
        <mxCell id="nLl6k8Ohztmbap9x90bs-1" value="判断当前商户全局渠道是否可用" style="rhombus;whiteSpace=wrap;html=1;fontFamily=Helvetica;fontSize=12;align=center;strokeColor=#B20000;fillColor=#e51400;fontColor=#ffffff;" parent="WIyWlLk6GJQsqaUBKTNV-1" vertex="1">
          <mxGeometry x="90" y="110" width="120" height="60" as="geometry" />
        </mxCell>
        <mxCell id="nLl6k8Ohztmbap9x90bs-63" value="" style="edgeStyle=orthogonalEdgeStyle;rounded=0;orthogonalLoop=1;jettySize=auto;html=1;" parent="WIyWlLk6GJQsqaUBKTNV-1" source="nLl6k8Ohztmbap9x90bs-9" target="nLl6k8Ohztmbap9x90bs-62" edge="1">
          <mxGeometry relative="1" as="geometry" />
        </mxCell>
        <mxCell id="nLl6k8Ohztmbap9x90bs-9" value="获取商户预先配置的其他渠道" style="whiteSpace=wrap;html=1;fillColor=#ffe6cc;strokeColor=#d79b00;" parent="WIyWlLk6GJQsqaUBKTNV-1" vertex="1">
          <mxGeometry x="390" y="110" width="120" height="60" as="geometry" />
        </mxCell>
        <mxCell id="nLl6k8Ohztmbap9x90bs-15" value="" style="edgeStyle=orthogonalEdgeStyle;rounded=0;orthogonalLoop=1;jettySize=auto;html=1;" parent="WIyWlLk6GJQsqaUBKTNV-1" source="nLl6k8Ohztmbap9x90bs-12" target="nLl6k8Ohztmbap9x90bs-14" edge="1">
          <mxGeometry relative="1" as="geometry" />
        </mxCell>
        <mxCell id="nLl6k8Ohztmbap9x90bs-12" value="获取优先级较高的可用渠道" style="whiteSpace=wrap;html=1;fillColor=#ffe6cc;strokeColor=#d79b00;" parent="WIyWlLk6GJQsqaUBKTNV-1" vertex="1">
          <mxGeometry x="390" y="380" width="120" height="60" as="geometry" />
        </mxCell>
        <mxCell id="nLl6k8Ohztmbap9x90bs-19" value="" style="edgeStyle=orthogonalEdgeStyle;rounded=0;orthogonalLoop=1;jettySize=auto;html=1;" parent="WIyWlLk6GJQsqaUBKTNV-1" source="nLl6k8Ohztmbap9x90bs-14" target="nLl6k8Ohztmbap9x90bs-18" edge="1">
          <mxGeometry relative="1" as="geometry" />
        </mxCell>
        <mxCell id="nLl6k8Ohztmbap9x90bs-14" value="调用渠道方接口" style="whiteSpace=wrap;html=1;fillColor=#ffe6cc;strokeColor=#d79b00;" parent="WIyWlLk6GJQsqaUBKTNV-1" vertex="1">
          <mxGeometry x="390" y="520" width="120" height="60" as="geometry" />
        </mxCell>
        <mxCell id="nLl6k8Ohztmbap9x90bs-21" value="" style="edgeStyle=orthogonalEdgeStyle;rounded=0;orthogonalLoop=1;jettySize=auto;html=1;" parent="WIyWlLk6GJQsqaUBKTNV-1" source="nLl6k8Ohztmbap9x90bs-18" target="nLl6k8Ohztmbap9x90bs-20" edge="1">
          <mxGeometry relative="1" as="geometry" />
        </mxCell>
        <mxCell id="nLl6k8Ohztmbap9x90bs-25" value="否" style="edgeLabel;html=1;align=center;verticalAlign=middle;resizable=0;points=[];" parent="nLl6k8Ohztmbap9x90bs-21" vertex="1" connectable="0">
          <mxGeometry x="-0.2375" y="-2" relative="1" as="geometry">
            <mxPoint as="offset" />
          </mxGeometry>
        </mxCell>
        <mxCell id="nLl6k8Ohztmbap9x90bs-23" value="" style="edgeStyle=orthogonalEdgeStyle;rounded=0;orthogonalLoop=1;jettySize=auto;html=1;" parent="WIyWlLk6GJQsqaUBKTNV-1" source="nLl6k8Ohztmbap9x90bs-18" target="nLl6k8Ohztmbap9x90bs-22" edge="1">
          <mxGeometry relative="1" as="geometry" />
        </mxCell>
        <mxCell id="nLl6k8Ohztmbap9x90bs-24" value="是" style="edgeLabel;html=1;align=center;verticalAlign=middle;resizable=0;points=[];" parent="nLl6k8Ohztmbap9x90bs-23" vertex="1" connectable="0">
          <mxGeometry x="-0.275" relative="1" as="geometry">
            <mxPoint y="1" as="offset" />
          </mxGeometry>
        </mxCell>
        <mxCell id="nLl6k8Ohztmbap9x90bs-18" value="判断渠道在当前线程调用次数是否超过指定数量" style="rhombus;whiteSpace=wrap;html=1;fontFamily=Helvetica;fontSize=12;fontColor=default;align=center;strokeColor=#d79b00;fillColor=#ffe6cc;" parent="WIyWlLk6GJQsqaUBKTNV-1" vertex="1">
          <mxGeometry x="390" y="660" width="120" height="60" as="geometry" />
        </mxCell>
        <mxCell id="nLl6k8Ohztmbap9x90bs-29" value="" style="edgeStyle=orthogonalEdgeStyle;rounded=0;orthogonalLoop=1;jettySize=auto;html=1;" parent="WIyWlLk6GJQsqaUBKTNV-1" source="nLl6k8Ohztmbap9x90bs-20" target="nLl6k8Ohztmbap9x90bs-28" edge="1">
          <mxGeometry relative="1" as="geometry" />
        </mxCell>
        <mxCell id="nLl6k8Ohztmbap9x90bs-20" value="调用三方接口" style="whiteSpace=wrap;html=1;fillColor=#ffe6cc;strokeColor=#d79b00;" parent="WIyWlLk6GJQsqaUBKTNV-1" vertex="1">
          <mxGeometry x="390" y="800" width="120" height="60" as="geometry" />
        </mxCell>
        <mxCell id="nLl6k8Ohztmbap9x90bs-22" value="直接返回渠道不可用" style="rounded=1;whiteSpace=wrap;html=1;fontFamily=Helvetica;fontSize=12;fontColor=default;align=center;strokeColor=#6c8ebf;fillColor=#dae8fc;" parent="WIyWlLk6GJQsqaUBKTNV-1" vertex="1">
          <mxGeometry x="190" y="660" width="120" height="60" as="geometry" />
        </mxCell>
        <mxCell id="nLl6k8Ohztmbap9x90bs-37" style="edgeStyle=orthogonalEdgeStyle;rounded=0;orthogonalLoop=1;jettySize=auto;html=1;exitX=0;exitY=0.5;exitDx=0;exitDy=0;" parent="WIyWlLk6GJQsqaUBKTNV-1" source="nLl6k8Ohztmbap9x90bs-28" target="nLl6k8Ohztmbap9x90bs-30" edge="1">
          <mxGeometry relative="1" as="geometry" />
        </mxCell>
        <mxCell id="nLl6k8Ohztmbap9x90bs-40" value="否" style="edgeLabel;html=1;align=center;verticalAlign=middle;resizable=0;points=[];" parent="nLl6k8Ohztmbap9x90bs-37" vertex="1" connectable="0">
          <mxGeometry x="-0.1" y="1" relative="1" as="geometry">
            <mxPoint as="offset" />
          </mxGeometry>
        </mxCell>
        <mxCell id="nLl6k8Ohztmbap9x90bs-45" value="是" style="edgeStyle=orthogonalEdgeStyle;rounded=0;orthogonalLoop=1;jettySize=auto;html=1;" parent="WIyWlLk6GJQsqaUBKTNV-1" source="nLl6k8Ohztmbap9x90bs-28" target="nLl6k8Ohztmbap9x90bs-44" edge="1">
          <mxGeometry relative="1" as="geometry" />
        </mxCell>
        <mxCell id="nLl6k8Ohztmbap9x90bs-28" value="判断接口是否超时" style="rhombus;whiteSpace=wrap;html=1;fontFamily=Helvetica;fontSize=12;fontColor=default;align=center;strokeColor=#d79b00;fillColor=#ffe6cc;" parent="WIyWlLk6GJQsqaUBKTNV-1" vertex="1">
          <mxGeometry x="390" y="940" width="120" height="60" as="geometry" />
        </mxCell>
        <mxCell id="nLl6k8Ohztmbap9x90bs-30" value="返回调起支付返回参数" style="rounded=1;whiteSpace=wrap;html=1;fontFamily=Helvetica;fontSize=12;fontColor=default;align=center;strokeColor=#6c8ebf;fillColor=#dae8fc;" parent="WIyWlLk6GJQsqaUBKTNV-1" vertex="1">
          <mxGeometry x="190" y="940" width="120" height="60" as="geometry" />
        </mxCell>
        <mxCell id="nLl6k8Ohztmbap9x90bs-47" value="" style="edgeStyle=orthogonalEdgeStyle;rounded=0;orthogonalLoop=1;jettySize=auto;html=1;" parent="WIyWlLk6GJQsqaUBKTNV-1" source="nLl6k8Ohztmbap9x90bs-44" target="nLl6k8Ohztmbap9x90bs-46" edge="1">
          <mxGeometry relative="1" as="geometry" />
        </mxCell>
        <mxCell id="nLl6k8Ohztmbap9x90bs-54" value="" style="edgeStyle=orthogonalEdgeStyle;rounded=0;orthogonalLoop=1;jettySize=auto;html=1;" parent="WIyWlLk6GJQsqaUBKTNV-1" source="nLl6k8Ohztmbap9x90bs-44" target="nLl6k8Ohztmbap9x90bs-53" edge="1">
          <mxGeometry relative="1" as="geometry" />
        </mxCell>
        <mxCell id="nLl6k8Ohztmbap9x90bs-44" value="记录渠道调用错误数" style="whiteSpace=wrap;html=1;fillColor=#e51400;strokeColor=#B20000;fontColor=#ffffff;" parent="WIyWlLk6GJQsqaUBKTNV-1" vertex="1">
          <mxGeometry x="580" y="940" width="120" height="60" as="geometry" />
        </mxCell>
        <mxCell id="nLl6k8Ohztmbap9x90bs-49" style="edgeStyle=orthogonalEdgeStyle;rounded=0;orthogonalLoop=1;jettySize=auto;html=1;exitX=1;exitY=0.5;exitDx=0;exitDy=0;entryX=1;entryY=0.5;entryDx=0;entryDy=0;" parent="WIyWlLk6GJQsqaUBKTNV-1" source="nLl6k8Ohztmbap9x90bs-46" target="nLl6k8Ohztmbap9x90bs-9" edge="1">
          <mxGeometry relative="1" as="geometry">
            <mxPoint x="590" y="400" as="targetPoint" />
            <Array as="points">
              <mxPoint x="950" y="970" />
              <mxPoint x="950" y="140" />
            </Array>
          </mxGeometry>
        </mxCell>
        <mxCell id="nLl6k8Ohztmbap9x90bs-46" value="标记当前线程此渠道不可用" style="whiteSpace=wrap;html=1;fillColor=#ffe6cc;strokeColor=#d79b00;" parent="WIyWlLk6GJQsqaUBKTNV-1" vertex="1">
          <mxGeometry x="760" y="940" width="120" height="60" as="geometry" />
        </mxCell>
        <mxCell id="nLl6k8Ohztmbap9x90bs-56" value="" style="edgeStyle=orthogonalEdgeStyle;rounded=0;orthogonalLoop=1;jettySize=auto;html=1;" parent="WIyWlLk6GJQsqaUBKTNV-1" source="nLl6k8Ohztmbap9x90bs-53" target="nLl6k8Ohztmbap9x90bs-55" edge="1">
          <mxGeometry relative="1" as="geometry" />
        </mxCell>
        <mxCell id="nLl6k8Ohztmbap9x90bs-53" value="判断错误数是否大于指定值" style="rhombus;whiteSpace=wrap;html=1;fontFamily=Helvetica;fontSize=12;fontColor=#ffffff;align=center;strokeColor=#B20000;fillColor=#e51400;" parent="WIyWlLk6GJQsqaUBKTNV-1" vertex="1">
          <mxGeometry x="580" y="1040" width="120" height="60" as="geometry" />
        </mxCell>
        <mxCell id="nLl6k8Ohztmbap9x90bs-55" value="标记当前商户应用全局渠道不可用" style="whiteSpace=wrap;html=1;fillColor=#e51400;strokeColor=#B20000;fontColor=#ffffff;" parent="WIyWlLk6GJQsqaUBKTNV-1" vertex="1">
          <mxGeometry x="580" y="1140" width="120" height="60" as="geometry" />
        </mxCell>
        <mxCell id="nLl6k8Ohztmbap9x90bs-57" value="可用渠道：当前线程渠道可用" style="shape=callout;whiteSpace=wrap;html=1;perimeter=calloutPerimeter;position2=0;fillColor=#d5e8d4;strokeColor=#82b366;gradientColor=none;rounded=1;" parent="WIyWlLk6GJQsqaUBKTNV-1" vertex="1">
          <mxGeometry x="510" y="330" width="180" height="70" as="geometry" />
        </mxCell>
        <mxCell id="nLl6k8Ohztmbap9x90bs-65" value="" style="edgeStyle=orthogonalEdgeStyle;rounded=0;orthogonalLoop=1;jettySize=auto;html=1;" parent="WIyWlLk6GJQsqaUBKTNV-1" source="nLl6k8Ohztmbap9x90bs-62" target="nLl6k8Ohztmbap9x90bs-64" edge="1">
          <mxGeometry relative="1" as="geometry" />
        </mxCell>
        <mxCell id="nLl6k8Ohztmbap9x90bs-66" value="是" style="edgeLabel;html=1;align=center;verticalAlign=middle;resizable=0;points=[];" parent="nLl6k8Ohztmbap9x90bs-65" vertex="1" connectable="0">
          <mxGeometry x="-0.0084" y="1" relative="1" as="geometry">
            <mxPoint as="offset" />
          </mxGeometry>
        </mxCell>
        <mxCell id="nLl6k8Ohztmbap9x90bs-67" style="edgeStyle=orthogonalEdgeStyle;rounded=0;orthogonalLoop=1;jettySize=auto;html=1;exitX=0.5;exitY=1;exitDx=0;exitDy=0;" parent="WIyWlLk6GJQsqaUBKTNV-1" source="nLl6k8Ohztmbap9x90bs-62" target="nLl6k8Ohztmbap9x90bs-12" edge="1">
          <mxGeometry relative="1" as="geometry" />
        </mxCell>
        <mxCell id="nLl6k8Ohztmbap9x90bs-68" value="否" style="edgeLabel;html=1;align=center;verticalAlign=middle;resizable=0;points=[];" parent="nLl6k8Ohztmbap9x90bs-67" vertex="1" connectable="0">
          <mxGeometry x="-0.2391" y="-3" relative="1" as="geometry">
            <mxPoint as="offset" />
          </mxGeometry>
        </mxCell>
        <mxCell id="nLl6k8Ohztmbap9x90bs-62" value="其他渠道是否为空" style="rhombus;whiteSpace=wrap;html=1;fontFamily=Helvetica;fontSize=12;fontColor=default;align=center;strokeColor=#d79b00;fillColor=#ffe6cc;" parent="WIyWlLk6GJQsqaUBKTNV-1" vertex="1">
          <mxGeometry x="390" y="250" width="120" height="60" as="geometry" />
        </mxCell>
        <mxCell id="nLl6k8Ohztmbap9x90bs-64" value="返回渠道不可用" style="rounded=1;whiteSpace=wrap;html=1;fontFamily=Helvetica;fontSize=12;align=center;strokeColor=#6c8ebf;fillColor=#dae8fc;" parent="WIyWlLk6GJQsqaUBKTNV-1" vertex="1">
          <mxGeometry x="190" y="250" width="120" height="60" as="geometry" />
        </mxCell>
      </root>
    </mxGraphModel>
  </diagram>
  <diagram id="hhLzAsvzcyAB5pR-Lwr4" name="第 2 页">
    <mxGraphModel dx="1510" dy="377" grid="1" gridSize="10" guides="1" tooltips="1" connect="1" arrows="1" fold="1" page="1" pageScale="1" pageWidth="827" pageHeight="1169" math="0" shadow="0">
      <root>
        <mxCell id="0" />
        <mxCell id="1" parent="0" />
        <mxCell id="7nYLmny2pPZ5cshgOVdz-1" value="" style="rounded=0;whiteSpace=wrap;html=1;fillColor=#dae8fc;strokeColor=#6c8ebf;" vertex="1" parent="1">
          <mxGeometry x="-10" y="10" width="240" height="400" as="geometry" />
        </mxCell>
        <mxCell id="7nYLmny2pPZ5cshgOVdz-7" value="日志拦截" style="rounded=0;whiteSpace=wrap;html=1;fillColor=#dae8fc;strokeColor=#6c8ebf;fontSize=16;" vertex="1" parent="1">
          <mxGeometry x="-10" y="10" width="240" height="60" as="geometry" />
        </mxCell>
        <mxCell id="7nYLmny2pPZ5cshgOVdz-8" value="日志解析" style="rounded=0;whiteSpace=wrap;html=1;fillColor=#dae8fc;strokeColor=#6c8ebf;fontSize=16;" vertex="1" parent="1">
          <mxGeometry x="-10" y="70" width="120" height="60" as="geometry" />
        </mxCell>
        <mxCell id="7nYLmny2pPZ5cshgOVdz-9" value="日志保存" style="rounded=0;whiteSpace=wrap;html=1;fillColor=#dae8fc;strokeColor=#6c8ebf;fontSize=16;" vertex="1" parent="1">
          <mxGeometry x="110" y="70" width="120" height="60" as="geometry" />
        </mxCell>
        <mxCell id="7nYLmny2pPZ5cshgOVdz-10" value="" style="rounded=0;whiteSpace=wrap;html=1;fontSize=16;fillColor=#dae8fc;strokeColor=#6c8ebf;" vertex="1" parent="1">
          <mxGeometry x="-10" y="130" width="240" height="190" as="geometry" />
        </mxCell>
        <mxCell id="7nYLmny2pPZ5cshgOVdz-11" value="自定义函数" style="rounded=0;whiteSpace=wrap;html=1;fontSize=12;fillColor=#dae8fc;strokeColor=#6c8ebf;" vertex="1" parent="1">
          <mxGeometry x="10" y="170" width="80" height="30" as="geometry" />
        </mxCell>
        <mxCell id="7nYLmny2pPZ5cshgOVdz-12" value="日志查询" style="rounded=0;whiteSpace=wrap;html=1;fontSize=12;fillColor=#dae8fc;strokeColor=#6c8ebf;" vertex="1" parent="1">
          <mxGeometry x="130" y="230" width="80" height="30" as="geometry" />
        </mxCell>
        <mxCell id="7nYLmny2pPZ5cshgOVdz-13" value="默认处理人" style="rounded=0;whiteSpace=wrap;html=1;fontSize=12;fillColor=#dae8fc;strokeColor=#6c8ebf;" vertex="1" parent="1">
          <mxGeometry x="10" y="230" width="80" height="30" as="geometry" />
        </mxCell>
        <mxCell id="7nYLmny2pPZ5cshgOVdz-14" value="日志上下文" style="rounded=0;whiteSpace=wrap;html=1;fontSize=12;fillColor=#dae8fc;strokeColor=#6c8ebf;" vertex="1" parent="1">
          <mxGeometry x="130" y="170" width="80" height="30" as="geometry" />
        </mxCell>
        <mxCell id="7nYLmny2pPZ5cshgOVdz-16" value="" style="html=1;shadow=0;dashed=0;align=center;verticalAlign=middle;shape=mxgraph.arrows2.arrow;dy=0.6;dx=22;flipH=1;notch=0;fontSize=12;" vertex="1" parent="1">
          <mxGeometry x="-80" y="165" width="90" height="40" as="geometry" />
        </mxCell>
        <mxCell id="7nYLmny2pPZ5cshgOVdz-17" value="业务函数" style="rounded=0;whiteSpace=wrap;html=1;fontSize=12;fillColor=#fff2cc;strokeColor=#d6b656;" vertex="1" parent="1">
          <mxGeometry x="-190" y="162.5" width="110" height="45" as="geometry" />
        </mxCell>
        <mxCell id="7nYLmny2pPZ5cshgOVdz-18" value="业务处理人" style="rounded=0;whiteSpace=wrap;html=1;fontSize=12;fillColor=#fff2cc;strokeColor=#d6b656;" vertex="1" parent="1">
          <mxGeometry x="-190" y="222.5" width="110" height="45" as="geometry" />
        </mxCell>
        <mxCell id="7nYLmny2pPZ5cshgOVdz-19" value="" style="html=1;shadow=0;dashed=0;align=center;verticalAlign=middle;shape=mxgraph.arrows2.arrow;dy=0.6;dx=22;flipH=1;notch=0;fontSize=12;" vertex="1" parent="1">
          <mxGeometry x="-80" y="222.5" width="90" height="40" as="geometry" />
        </mxCell>
        <mxCell id="7nYLmny2pPZ5cshgOVdz-20" value="" style="html=1;shadow=0;dashed=0;align=center;verticalAlign=middle;shape=mxgraph.arrows2.arrow;dy=0.6;dx=22;flipH=1;notch=0;fontSize=12;direction=west;" vertex="1" parent="1">
          <mxGeometry x="210" y="167.5" width="90" height="40" as="geometry" />
        </mxCell>
        <mxCell id="7nYLmny2pPZ5cshgOVdz-21" value="" style="html=1;shadow=0;dashed=0;align=center;verticalAlign=middle;shape=mxgraph.arrows2.arrow;dy=0.6;dx=22;flipH=1;notch=0;fontSize=12;direction=west;" vertex="1" parent="1">
          <mxGeometry x="210" y="222.5" width="90" height="40" as="geometry" />
        </mxCell>
        <mxCell id="7nYLmny2pPZ5cshgOVdz-22" value="保存变量" style="rounded=0;whiteSpace=wrap;html=1;fontSize=12;fillColor=#fff2cc;strokeColor=#d6b656;" vertex="1" parent="1">
          <mxGeometry x="300" y="160" width="110" height="45" as="geometry" />
        </mxCell>
        <mxCell id="7nYLmny2pPZ5cshgOVdz-23" value="业务日志查询逻辑" style="rounded=0;whiteSpace=wrap;html=1;fontSize=12;fillColor=#fff2cc;strokeColor=#d6b656;" vertex="1" parent="1">
          <mxGeometry x="300" y="220" width="110" height="45" as="geometry" />
        </mxCell>
        <mxCell id="7nYLmny2pPZ5cshgOVdz-24" style="edgeStyle=orthogonalEdgeStyle;rounded=0;orthogonalLoop=1;jettySize=auto;html=1;exitX=0.5;exitY=1;exitDx=0;exitDy=0;fontSize=12;" edge="1" parent="1" source="7nYLmny2pPZ5cshgOVdz-1" target="7nYLmny2pPZ5cshgOVdz-1">
          <mxGeometry relative="1" as="geometry" />
        </mxCell>
        <mxCell id="7nYLmny2pPZ5cshgOVdz-25" value="日志存储" style="rounded=0;whiteSpace=wrap;html=1;fontSize=16;fillColor=#dae8fc;strokeColor=#6c8ebf;" vertex="1" parent="1">
          <mxGeometry x="55" y="350" width="110" height="40" as="geometry" />
        </mxCell>
        <mxCell id="7nYLmny2pPZ5cshgOVdz-26" value="" style="html=1;shadow=0;dashed=0;align=center;verticalAlign=middle;shape=mxgraph.arrows2.arrow;dy=0.6;dx=40;direction=south;notch=0;fontSize=16;" vertex="1" parent="1">
          <mxGeometry x="60" y="390" width="100" height="60" as="geometry" />
        </mxCell>
        <mxCell id="7nYLmny2pPZ5cshgOVdz-27" value="业务存储" style="rounded=0;whiteSpace=wrap;html=1;fontSize=16;fillColor=#fff2cc;strokeColor=#d6b656;" vertex="1" parent="1">
          <mxGeometry x="17.5" y="450" width="185" height="70" as="geometry" />
        </mxCell>
      </root>
    </mxGraphModel>
  </diagram>
</mxfile>
